<?xml version="1.0" encoding="iso-8859-1"?>
<!-- Generator: Adobe Illustrator 19.0.0, SVG Export Plug-In . SVG Version: 6.00 Build 0)  -->
<svg version="1.1" id="Capa_1" xmlns="http://www.w3.org/2000/svg" xmlns:xlink="http://www.w3.org/1999/xlink" x="0px" y="0px"
	 viewBox="0 0 512 512" style="enable-background:new 0 0 512 512;" xml:space="preserve">
<path style="fill:#8B8992;" d="M197.499,95h-30V45c0-24.813,20.187-45,45-45h257v30h-257c-8.271,0-15,6.729-15,15V95z"/>
<path style="fill:#57555C;" d="M182.499,45.017V95h15V45c0-8.271,6.729-15,15-15h257V15.017h-257
	C195.93,15.017,182.499,28.448,182.499,45.017z"/>
<path style="fill:#B87FD9;" d="M182.499,512c-85.467,0-155-69.533-155-155V175c0-52.383,42.617-95,95-95h120
	c52.383,0,95,42.617,95,95v182C337.499,442.467,267.966,512,182.499,512z"/>
<path style="fill:#8034AD;" d="M242.499,80h-60v432c85.467,0,155-69.533,155-155V175C337.499,122.617,294.882,80,242.499,80z"/>
<path style="fill:#E3CEF0;" d="M161.499,264h-134v-89c0-52.383,42.617-95,95-95h39V264z"/>
<path style="fill:#D5B4E8;" d="M337.499,264h-133V80h38c52.383,0,95,42.617,95,95V264z"/>
<path style="fill:#FFE477;" d="M427.764,512h-106.53c-19.501,0-36.685-12.45-42.761-30.98l-12.102-36.91l-75.929-75.236
	c-8.548-8.547-13.229-19.848-13.229-31.868c0-12.02,4.681-23.32,13.181-31.819c8.499-8.5,19.8-13.181,31.82-13.181
	s23.32,4.682,31.82,13.181l10.465,10.463V186c0-24.813,20.187-45,45-45s45,20.187,45,45v89.851l96.921,26.627
	c19.477,5.35,33.079,23.193,33.079,43.393v92.526l-13.976,42.623C464.448,499.55,447.265,512,427.764,512z"/>
<path style="fill:#FFA733;" d="M451.42,302.478l-96.921-26.627V186c0-17.089-9.576-31.982-23.642-39.599V512h96.907
	c19.501,0,36.685-12.45,42.76-30.98l13.976-42.623V345.87C484.499,325.671,470.896,307.827,451.42,302.478z"/>
<g>
</g>
<g>
</g>
<g>
</g>
<g>
</g>
<g>
</g>
<g>
</g>
<g>
</g>
<g>
</g>
<g>
</g>
<g>
</g>
<g>
</g>
<g>
</g>
<g>
</g>
<g>
</g>
<g>
</g>
</svg>
